<svg width="4221" height="1572" viewBox="0 0 4221 1572" fill="none" xmlns="http://www.w3.org/2000/svg">
<path d="M2208 648C2239.35 648 2270.7 648 2303 648C2311.43 661.702 2311.43 661.702 2314.02 667.133C2315.54 670.038 2317.44 672.67 2319.29 675.371C2322.09 679.682 2324.56 684.179 2327.07 688.668C2328.95 692.012 2328.95 692.012 2331.12 695.113C2332.83 697.734 2333.87 700.104 2335 703C2336.05 704.731 2337.13 706.439 2338.25 708.125C2340.66 711.847 2342.91 715.585 2345 719.5C2347.53 724.244 2350.35 728.731 2353.28 733.242C2355.54 736.858 2357.52 740.599 2359.52 744.359C2361.39 747.693 2363.5 750.812 2365.7 753.93C2367.13 756.206 2368.01 758.506 2369 761C2370.26 763.124 2371.61 765.17 2372.98 767.23C2374 769 2374 769 2374 771C2374.66 771 2375.32 771 2376 771C2376.67 772.456 2377.34 773.915 2378 775.375C2378.37 776.187 2378.74 776.999 2379.12 777.836C2380 780 2380 780 2380 782C2380.66 782 2381.32 782 2382 782C2382.84 783.455 2383.67 784.914 2384.5 786.375C2384.96 787.187 2385.43 787.999 2385.91 788.836C2387 791 2387 791 2387 793C2387.66 793 2388.32 793 2389 793C2389.4 794.014 2389.81 795.029 2390.23 796.074C2391.88 799.924 2394.04 803.348 2396.38 806.812C2399.56 811.638 2402.33 816.459 2404.82 821.691C2406.5 824.979 2408.58 827.953 2410.67 830.992C2412.36 833.547 2413.63 836.258 2415 839C2416.73 841.761 2418.5 844.494 2420.28 847.219C2422.03 850.045 2423.51 853.028 2425 856C2425.5 753.04 2425.5 753.04 2426 648C2458.01 648 2490.02 648 2523 648C2523 773.73 2523 899.46 2523 1029C2490.99 1029 2458.98 1029 2426 1029C2423.1 1025.13 2422.15 1022.6 2421 1018C2420.34 1018 2419.68 1018 2419 1018C2418.16 1016.54 2417.33 1015.09 2416.5 1013.62C2416.04 1012.81 2415.57 1012 2415.09 1011.16C2414 1009 2414 1009 2414 1007C2413.34 1007 2412.68 1007 2412 1007C2408.71 999.571 2408.71 999.571 2408 996C2407.34 996 2406.68 996 2406 996C2405.53 995.08 2405.05 994.159 2404.57 993.211C2400.41 985.231 2395.96 977.611 2390.98 970.121C2389.1 967.152 2387.56 964.147 2386 961C2384.9 959.235 2383.77 957.485 2382.62 955.75C2380.33 952.203 2378.27 948.68 2376.44 944.875C2374.49 940.837 2372.22 937.244 2369.68 933.559C2366.87 929.278 2364.43 924.797 2361.93 920.332C2360.05 916.988 2360.05 916.988 2357.88 913.887C2356 911 2356 911 2355.06 908.586C2353.28 904.231 2350.4 900.548 2347.72 896.703C2344.9 892.586 2342.9 888.609 2341 884C2339.72 881.851 2339.72 881.851 2338.31 879.938C2335.24 875.469 2332.56 870.811 2329.9 866.09C2328.12 862.951 2326.32 859.85 2324.38 856.812C2322.43 853.764 2320.7 850.63 2319 847.438C2317.27 844.21 2315.51 841.182 2313.31 838.25C2310.95 834.933 2309.56 831.742 2308 828C2306.68 826.02 2305.36 824.04 2304 822C2303.67 890.31 2303.34 958.62 2303 1029C2271.65 1029 2240.3 1029 2208 1029C2208 903.27 2208 777.54 2208 648Z" fill="white"/>
<path d="M624 648C655.35 648 686.7 648 719 648C723.089 654.425 726.537 659.922 729.758 666.605C731.415 669.801 733.421 672.688 735.461 675.648C737.719 679.099 739.615 682.723 741.555 686.359C743.224 689.408 745.055 692.323 746.926 695.25C748 697 748 697 749.375 699.812C750.873 702.751 752.522 705.421 754.312 708.188C756.702 711.889 758.926 715.613 761 719.5C763.019 723.28 765.17 726.903 767.5 730.5C770.435 735.032 773.047 739.669 775.59 744.43C777.246 747.449 779.064 750.337 780.918 753.238C782.453 755.738 783.689 758.377 785 761C786.311 763.107 787.649 765.192 789.012 767.266C790 769 790 769 790 771C790.66 771 791.32 771 792 771C792.671 772.456 793.337 773.915 794 775.375C794.371 776.187 794.743 776.999 795.125 777.836C796 780 796 780 796 782C796.66 782 797.32 782 798 782C798.838 783.455 799.671 784.914 800.5 786.375C800.964 787.187 801.428 787.999 801.906 788.836C803 791 803 791 803 793C803.66 793 804.32 793 805 793C805.416 794.026 805.833 795.052 806.262 796.109C807.806 799.709 809.706 802.942 811.812 806.25C814.42 810.385 816.892 814.557 819.188 818.875C820.855 822.002 822.567 824.91 824.688 827.75C827 831 827 831 828.438 834.375C830.039 838.091 831.98 841.108 834.305 844.398C836.742 848.139 838.832 852.097 841 856C841.495 753.04 841.495 753.04 842 648C874.01 648 906.02 648 939 648C939 773.73 939 899.46 939 1029C906.99 1029 874.98 1029 842 1029C837.5 1022.25 837.5 1022.25 837 1018C836.34 1018 835.68 1018 835 1018C834.162 1016.54 833.329 1015.09 832.5 1013.62C832.036 1012.81 831.572 1012 831.094 1011.16C830 1009 830 1009 830 1007C829.34 1007 828.68 1007 828 1007C827.329 1005.54 826.663 1004.08 826 1002.62C825.629 1001.81 825.257 1001 824.875 1000.16C824 998 824 998 824 996C823.34 996 822.68 996 822 996C818.618 991.338 816.009 986.109 813.5 980.938C811.437 976.697 809.002 972.888 806.332 969.008C804.637 966.453 803.371 963.742 802 961C800.909 959.263 799.803 957.534 798.688 955.812C795.732 951.233 793.099 946.56 790.535 941.754C788.944 938.9 787.22 936.175 785.438 933.438C782.697 929.213 780.426 924.926 778.242 920.395C776.585 917.2 774.581 914.313 772.539 911.355C770.272 907.886 768.391 904.227 766.445 900.57C765.184 898.327 763.853 896.307 762.312 894.25C760 891 760 891 758.562 887.625C756.291 882.356 753.136 877.608 749.5 873.168C747.514 870.298 746.365 867.208 745 864C743.792 861.913 742.541 859.85 741.25 857.812C740.54 856.683 739.832 855.553 739.125 854.422C738.771 853.855 738.416 853.289 738.051 852.705C736.397 850.022 734.825 847.292 733.25 844.562C731.478 841.495 729.702 838.477 727.688 835.562C726.052 833.08 725.099 830.748 724 828C722.68 826.02 721.36 824.04 720 822C719.67 890.31 719.34 958.62 719 1029C687.65 1029 656.3 1029 624 1029C624 903.27 624 777.54 624 648Z" fill="white"/>
<path d="M3816 648C3905.76 648 3995.52 648 4088 648C4088 675.06 4088 702.12 4088 730C4031.9 730 3975.8 730 3918 730C3918 749.8 3918 769.6 3918 790C3969.81 790 4021.62 790 4075 790C4075 815.74 4075 841.48 4075 868C4023.19 868 3971.38 868 3918 868C3918 892.75 3918 917.5 3918 943C3975.75 943 4033.5 943 4093 943C4093 971.38 4093 999.76 4093 1029C4001.59 1029 3910.18 1029 3816 1029C3816 903.27 3816 777.54 3816 648Z" fill="white"/>
<path d="M1245 648C1327.83 648 1410.66 648 1496 648C1496 675.06 1496 702.12 1496 730C1446.83 730 1397.66 730 1347 730C1347 751.78 1347 773.56 1347 796C1389.24 796 1431.48 796 1475 796C1475 821.41 1475 846.82 1475 873C1432.76 873 1390.52 873 1347 873C1347 924.48 1347 975.96 1347 1029C1313.34 1029 1279.68 1029 1245 1029C1245 903.27 1245 777.54 1245 648Z" fill="white"/>
<path d="M3223 648C3324.97 648 3426.94 648 3532 648C3532 679.35 3532 710.7 3532 743C3497.68 743 3463.36 743 3428 743C3428 837.38 3428 931.76 3428 1029C3394.34 1029 3360.68 1029 3326 1029C3326 934.62 3326 840.24 3326 743C3292.01 743 3258.02 743 3223 743C3223 711.65 3223 680.3 3223 648Z" fill="white"/>
<path d="M384 228C385.132 228.38 386.264 228.761 387.43 229.152C395.659 232.083 402.721 236.21 410 241C410.872 241.552 411.743 242.103 412.641 242.672C416.95 245.44 420.412 248.322 424 252C425.532 253.18 427.074 254.346 428.625 255.5C432.004 258.076 434.006 260.211 436 264C437.161 265.128 438.323 266.255 439.489 267.379C453.555 282.463 460.459 301.563 466 321C466.188 321.654 466.377 322.307 466.571 322.98C473.749 356.721 464.828 392.604 446.403 421.039C443.347 425.635 440.142 430.306 436 434C435.34 434 434.68 434 434 434C433.933 434.579 433.866 435.158 433.797 435.754C432.688 438.881 430.889 439.967 428.25 441.938C425.473 444.061 422.976 446.026 420.563 448.563C416.498 452.429 411.796 455.123 407 458C406.418 458.362 405.837 458.724 405.237 459.096C378.196 475.86 344.444 481.087 313.369 474.57C307.06 473.052 300.943 470.903 294.856 468.668C293.189 468.068 291.502 467.524 289.813 466.988C286.943 465.98 284.461 464.741 281.813 463.25C278.897 461.615 275.986 459.992 273.02 458.449C267.887 455.769 263.959 453.298 260 449C259.01 448.34 258.02 447.68 257 447C252.083 443.722 248.66 439.575 245 435C243.856 433.886 243.856 433.886 242.688 432.75C237.338 427.276 232.954 421.355 229.391 414.586C228.304 412.564 227.156 410.576 225.985 408.602C225.627 407.997 225.269 407.393 224.9 406.77C223.862 405.02 222.816 403.273 221.77 401.527C220.139 398.276 219.245 395.545 218.468 392.038C217.999 389.994 217.417 388.025 216.781 386.027C208.704 360.405 209.438 335.673 217 310C217.298 308.958 217.596 307.917 217.903 306.844C220.31 298.992 223.97 292.129 228 285C228.388 284.22 228.776 283.44 229.176 282.637C232.34 276.344 236.762 271.275 241.371 266.008C243.31 263.79 245.165 261.551 247 259.25C250.332 255.344 254.397 252.281 258.414 249.113C260.993 247.091 260.993 247.091 263.039 244.883C265.167 242.84 267.079 241.792 269.75 240.563C272.931 239.09 275.86 237.47 278.793 235.563C282.879 232.975 287.046 231.139 291.563 229.438C292.344 229.14 293.124 228.843 293.929 228.536C324.087 217.296 353.853 217.458 384 228Z" fill="#3980A1"/>
<path d="M805.313 242C805.989 242.412 806.665 242.825 807.361 243.25C811.43 245.79 814.666 248.512 818 252C818.949 252.598 819.898 253.196 820.875 253.812C824.256 256.179 826.574 258.745 829.191 261.902C831.021 264.094 831.021 264.094 833.363 266.25C836.574 269.599 839.056 273.213 841.625 277.062C842.575 278.471 843.525 279.878 844.477 281.285C844.916 281.939 845.356 282.593 845.809 283.267C846.737 284.618 847.72 285.931 848.723 287.227C850.141 289.196 850.955 291.044 851.813 293.312C852.971 296.365 854.163 299.368 855.484 302.355C859.694 312.078 861.705 321.508 863 332C863.141 333.116 863.141 333.116 863.286 334.254C866.181 358.404 863.307 383.489 851.865 405.125C850.971 407.064 850.452 408.918 850 411C849.34 411 848.68 411 848 411C847.746 411.879 847.492 412.758 847.231 413.664C844.373 421.411 838.274 427.947 832.785 434.023C831.5 435.446 830.24 436.892 828.996 438.352C825.279 442.682 821.881 445.963 817 449C815.886 450.168 815.886 450.168 814.75 451.359C811.81 454.183 808.744 456.086 805.188 458C801.273 460.159 797.409 462.329 793.688 464.812C789.657 467.356 785.543 468.639 781 470C779.858 470.392 778.716 470.784 777.539 471.188C748.946 480.906 720.358 479.922 692 470C691.214 469.743 690.427 469.487 689.617 469.223C681.485 466.44 674.066 461.818 667 457C665.886 456.402 664.773 455.804 663.625 455.188C659.942 453.126 656.955 450.481 653.84 447.652C651.93 445.891 651.93 445.891 649.438 444.062C646.504 441.58 644.119 438.801 641.633 435.879C639.973 433.906 639.973 433.906 637.813 431.938C635.801 429.788 634.517 427.473 633.121 424.895C631.953 422.92 630.633 421.22 629.195 419.434C625.624 414.726 623.202 409.667 620.75 404.312C620.317 403.389 619.884 402.465 619.438 401.514C614.05 389.964 614.05 389.964 612.965 384.234C612.795 383.344 612.626 382.453 612.451 381.535C612.197 380.157 612.197 380.157 611.938 378.75C611.678 377.395 611.678 377.395 611.412 376.012C605.779 346.012 609.899 316.453 623.875 289.312C624.491 288.1 624.491 288.1 625.119 286.863C627.551 282.236 630.172 278.31 633.715 274.46C635.171 272.896 635.171 272.896 636.563 270.375C638.345 267.43 640.535 265.41 643 263C644.996 260.709 646.975 258.405 648.938 256.086C651.13 253.869 653.312 252.557 656 251C657.34 249.864 658.653 248.698 659.938 247.5C663.142 244.641 666.099 242.836 670 241C671.671 239.882 673.338 238.756 675 237.625C681.317 233.559 687.875 231.269 695 229C696.027 228.64 697.055 228.281 698.113 227.91C734.027 215.817 773.493 222.015 805.313 242Z" fill="#F5DC4D"/>
<path d="M1182 229C1183.06 229.379 1184.13 229.758 1185.23 230.148C1197.52 234.822 1210.56 242.746 1220 252C1220 252.66 1220 253.32 1220 254C1220.57 254.248 1221.14 254.495 1221.73 254.75C1228.93 258.714 1234.07 266.108 1238.49 272.836C1239.89 274.989 1239.89 274.989 1241.55 276.508C1243.34 278.346 1244.22 280.186 1245.31 282.5C1247.04 286.128 1248.92 289.604 1250.93 293.078C1254.14 298.937 1256.05 304.813 1257.75 311.25C1258.19 312.897 1258.19 312.897 1258.65 314.578C1265.17 339.383 1263.91 362.579 1256.57 387.054C1256.1 388.673 1255.67 390.306 1255.25 391.941C1253.7 397.947 1250.99 402.839 1247.75 408.121C1246.25 410.586 1244.89 413.067 1243.56 415.625C1239.55 422.915 1234.02 429.29 1228 435C1226.77 436.204 1225.54 437.413 1224.31 438.625C1223.44 439.48 1223.44 439.48 1222.55 440.352C1220.8 442.124 1220.8 442.124 1219 445C1217.35 446.024 1215.68 447.021 1214 448C1211.46 450.006 1208.98 452.079 1206.5 454.16C1204.02 455.988 1201.87 456.912 1199 458C1196.98 459.137 1194.98 460.306 1193 461.5C1187.6 464.754 1182.68 466.916 1176.54 468.367C1174.58 468.856 1172.62 469.391 1170.68 469.945C1147.31 476.536 1121.73 477.759 1098.7 468.965C1095.85 467.884 1095.85 467.884 1092.14 467.121C1087.86 466.085 1084.31 464.284 1080.5 462.125C1079.19 461.397 1077.87 460.671 1076.55 459.945C1075.94 459.603 1075.32 459.26 1074.68 458.907C1072.7 457.84 1070.68 456.915 1068.63 456C1064.5 454 1061.37 450.947 1058.08 447.805C1056.12 445.952 1056.12 445.952 1053.95 444.996C1051.54 443.764 1050.28 442.267 1048.56 440.188C1046.63 437.873 1044.69 435.696 1042.56 433.566C1036.53 427.516 1031.13 420.961 1027.24 413.336C1026.01 410.926 1026.01 410.926 1024.36 408.477C1018.45 399.292 1015.75 389.486 1013 379C1012.67 377.738 1012.34 376.476 1012 375.176C1004.77 345.674 1009.51 312.114 1025 286C1025.91 284.153 1026.81 282.299 1027.69 280.438C1029.4 276.959 1031.11 274.623 1034 272C1035.33 270.158 1036.6 268.287 1037.85 266.391C1038.23 265.932 1038.61 265.473 1039 265C1039.66 265 1040.32 265 1041 265C1041.39 264.126 1041.39 264.126 1041.78 263.234C1043.1 260.82 1044.55 259.183 1046.5 257.25C1047.41 256.33 1047.41 256.33 1048.34 255.391C1050 254 1050 254 1052 254C1052.23 253.417 1052.46 252.835 1052.7 252.234C1059.18 241.108 1078.34 233.265 1090 229C1090.97 228.633 1090.97 228.633 1091.96 228.258C1121.97 216.954 1152.14 217.725 1182 229Z" fill="#B54D4A"/>
<path d="M2832 648C2865.66 648 2899.32 648 2934 648C2934 773.73 2934 899.46 2934 1029C2900.34 1029 2866.68 1029 2832 1029C2832 903.27 2832 777.54 2832 648Z" fill="white"/>
<path d="M210 648C243.66 648 277.32 648 312 648C312 773.73 312 899.46 312 1029C278.34 1029 244.68 1029 210 1029C210 903.27 210 777.54 210 648Z" fill="white"/>
<path d="M1794 648C1827.33 648 1860.66 648 1895 648C1895 773.73 1895 899.46 1895 1029C1861.67 1029 1828.34 1029 1794 1029C1794 903.27 1794 777.54 1794 648Z" fill="white"/>
<path d="M570.75 1231.25C571.708 1231.28 572.667 1231.3 573.654 1231.33C583.025 1231.74 590.919 1234.16 599.188 1238.5C602.71 1240.34 606.168 1242.08 609.863 1243.53C610.899 1244.02 611.934 1244.5 613 1245C613.33 1245.99 613.66 1246.98 614 1248C615.313 1248.71 616.653 1249.36 618 1250C624.437 1253.96 628.5 1258.98 633 1265C633.535 1265.69 634.07 1266.38 634.621 1267.09C636.322 1269.44 637.579 1271.95 638.828 1274.56C639.678 1276.33 640.569 1278.08 641.485 1279.81C651.69 1300.02 652.661 1328.42 646 1350C640.193 1366.22 630.22 1384.01 615 1393C614.229 1393.63 613.458 1394.27 612.664 1394.92C596.902 1407.24 573.49 1411.93 553.982 1409.78C539.101 1407.75 524.523 1402.35 512 1394C512 1393.34 512 1392.68 512 1392C511.196 1391.63 511.196 1391.63 510.375 1391.25C505.031 1388.44 501.538 1385.73 498.227 1380.74C496.439 1378.2 494.217 1376.16 492 1374C490 1371 490 1371 490 1367C489.34 1367 488.68 1367 488 1367C486.871 1364.63 485.747 1362.25 484.625 1359.88C484.308 1359.21 483.991 1358.54 483.664 1357.86C474.913 1339.26 473.377 1311.4 479.734 1291.73C482.121 1285.14 484.579 1278.51 489 1273C489.688 1271.34 490.356 1269.68 491 1268C491.66 1267.01 492.32 1266.02 493 1265C493.66 1265 494.32 1265 495 1265C495.276 1264.41 495.552 1263.82 495.836 1263.21C498.933 1257.33 503.684 1253.21 509.07 1249.46C511.075 1248.04 511.075 1248.04 512.746 1246.07C515.815 1243.25 519.167 1241.72 522.938 1240C523.695 1239.65 524.452 1239.3 525.232 1238.95C540.485 1232.08 554.234 1230.71 570.75 1231.25ZM540 1260C539.06 1260.37 538.121 1260.75 537.153 1261.13C536.442 1261.42 535.732 1261.71 535 1262C535 1262.66 535 1263.32 535 1264C533.981 1264.2 532.961 1264.4 531.91 1264.61C527.256 1265.95 524.619 1268.72 521.438 1272.25C520.589 1273.18 520.589 1273.18 519.723 1274.13C514.442 1280.18 511.516 1286.35 509 1294C508.677 1294.95 508.353 1295.91 508.02 1296.89C502.16 1315.27 503.398 1336.57 511.871 1353.98C514.021 1357.82 516.424 1361.44 519 1365C520.114 1366.55 520.114 1366.55 521.25 1368.13C531.384 1378.72 545.589 1384.25 560.07 1385.2C575.449 1385.44 590.222 1381.25 602 1371C615.621 1357.26 621.161 1339.97 621.25 1320.94C621.271 1319.87 621.291 1318.8 621.313 1317.7C621.385 1302.8 617.069 1285.48 606.563 1274.44C605.294 1273.23 605.294 1273.23 604 1272C603.32 1271.22 602.639 1270.43 601.938 1269.63C589.278 1258.31 574.273 1255.06 557.805 1255.6C551.478 1255.99 545.875 1257.61 540 1260Z" fill="white"/>
<path d="M1197 1233C1205.91 1233 1214.82 1233 1224 1233C1224.01 1236.61 1224.03 1240.23 1224.04 1243.95C1224.09 1255.9 1224.16 1267.86 1224.24 1279.81C1224.28 1287.06 1224.32 1294.3 1224.35 1301.55C1224.37 1307.87 1224.4 1314.19 1224.45 1320.51C1224.47 1323.85 1224.49 1327.19 1224.5 1330.53C1224.51 1334.28 1224.54 1338.02 1224.57 1341.76C1224.57 1343.4 1224.57 1343.4 1224.56 1345.08C1224.64 1351.12 1225.36 1356.24 1227.36 1361.95C1228 1364 1228 1364 1228 1367C1228.66 1367 1229.32 1367 1230 1367C1231.11 1368.64 1231.11 1368.64 1232.31 1370.81C1234.49 1374.41 1236.12 1376.2 1240 1378C1240.56 1378.33 1241.13 1378.65 1241.71 1378.99C1252.25 1384.89 1264.58 1385.22 1276.13 1382.18C1285.33 1379.01 1292.15 1374.6 1297 1366C1301.35 1352.15 1300.48 1337.17 1300.51 1322.84C1300.53 1320.24 1300.55 1317.64 1300.57 1315.04C1300.61 1308.94 1300.64 1302.84 1300.66 1296.74C1300.69 1289.78 1300.73 1282.82 1300.78 1275.86C1300.87 1261.58 1300.94 1247.29 1301 1233C1310.24 1233 1319.48 1233 1329 1233C1329.07 1248.11 1329.12 1263.22 1329.16 1278.33C1329.17 1285.34 1329.19 1292.36 1329.23 1299.38C1329.26 1306.16 1329.28 1312.94 1329.28 1319.72C1329.29 1322.3 1329.3 1324.88 1329.32 1327.46C1329.46 1351.53 1328.3 1372.86 1311.56 1391.75C1310.72 1392.49 1309.87 1393.24 1309 1394C1308.25 1394.68 1308.25 1394.68 1307.48 1395.38C1293.28 1407.23 1273.05 1411.47 1255 1410C1242.24 1408.3 1231.33 1403.89 1220 1398C1220 1397.34 1220 1396.68 1220 1396C1219.46 1395.77 1218.93 1395.55 1218.38 1395.31C1208.08 1389.62 1203.16 1378.64 1198.81 1368.12C1196.66 1359.83 1196.86 1351.18 1196.89 1342.67C1196.89 1341.47 1196.89 1340.28 1196.89 1339.06C1196.89 1335.82 1196.89 1332.59 1196.9 1329.35C1196.9 1325.96 1196.91 1322.57 1196.91 1319.17C1196.91 1312.76 1196.92 1306.35 1196.93 1299.94C1196.94 1292.64 1196.94 1285.34 1196.95 1278.03C1196.96 1263.02 1196.98 1248.01 1197 1233Z" fill="white"/>
<path d="M918.669 1230.99C938.488 1231.05 957.612 1235.14 973.418 1247.96C975.187 1249.75 975.187 1249.75 976.48 1251.3C978.113 1253.22 978.113 1253.22 980.887 1255.31C988.058 1261.19 994.257 1271.14 997 1280C997 1280.99 997 1281.98 997 1283C992.41 1283.25 987.825 1283.43 983.23 1283.55C981.67 1283.6 980.11 1283.67 978.552 1283.75C973.543 1284.03 968.912 1284.11 964 1283C960.846 1280.05 959.583 1276.95 958 1273C951.464 1264.14 939.68 1258.8 929 1257C917.585 1255.92 906.637 1256.48 896 1261C894.94 1261.44 893.881 1261.87 892.789 1262.32C886.797 1265.03 882.53 1267.84 878.5 1273.07C877 1275 877 1275 875.035 1276.8C872.448 1279.6 870.981 1282.69 869.437 1286.12C868.982 1287.12 868.982 1287.12 868.517 1288.14C860.927 1305.1 858.566 1326.25 865 1344C869.445 1354.88 873.719 1363.46 883 1371C883.619 1371.68 884.237 1372.36 884.875 1373.06C894.582 1381.91 910.395 1384.32 923 1384C931.597 1383.03 939.21 1380.9 946.926 1376.99C949 1376 949 1376 951 1376C951.227 1375.44 951.454 1374.89 951.687 1374.31C953.375 1371.34 955.467 1369.28 958 1367C958.66 1367 959.32 1367 960 1367C960.289 1366.09 960.577 1365.19 960.875 1364.25C962 1361 962 1361 964 1357C975.22 1357 986.44 1357 998 1357C994.625 1368.25 994.625 1368.25 991.25 1372.56C990.543 1373.48 989.837 1374.39 989.109 1375.33C988.413 1376.21 987.717 1377.09 987 1378C986.407 1378.82 985.814 1379.64 985.203 1380.48C981.359 1385.74 977.348 1389.34 972 1393C970.927 1393.85 970.927 1393.85 969.832 1394.71C952.977 1407.64 928.992 1411.71 908.25 1409.31C901.252 1408.2 894.665 1406.38 888 1404C887.027 1403.68 886.053 1403.35 885.051 1403.02C872.787 1398.5 862.036 1390.24 854 1380C853.278 1379.32 852.556 1378.64 851.812 1377.94C849.088 1375.03 846 1371.09 846 1367C845.34 1367 844.68 1367 844 1367C831.409 1345.22 830.025 1318.08 836 1294C836.267 1292.87 836.534 1291.74 836.808 1290.58C839.091 1282.09 843.067 1275.23 848 1268C848.483 1267.27 848.967 1266.54 849.465 1265.79C861.781 1248.26 880.136 1236.56 901 1232C906.894 1231.12 912.726 1231.01 918.669 1230.99Z" fill="white"/>
<path d="M1614 1236C1615 1236.51 1616 1237.02 1617.04 1237.54C1629.97 1244.56 1637.05 1253.73 1641.88 1267.5C1642.87 1271.14 1643 1274.19 1643 1278C1633.1 1278 1623.2 1278 1613 1278C1609 1268 1609 1268 1608 1265C1606.69 1264.3 1605.35 1263.64 1604 1263C1603.28 1262.36 1602.56 1261.72 1601.81 1261.06C1594.06 1255.38 1585.34 1255.2 1576 1256C1569.45 1257.28 1562.64 1261.14 1558.83 1266.71C1555.74 1273.6 1555.87 1282.34 1558.06 1289.44C1563.48 1296.6 1569.98 1299.61 1578.31 1302.56C1579.37 1302.95 1580.43 1303.34 1581.53 1303.74C1587.79 1305.99 1594.06 1307.92 1600.5 1309.56C1615.87 1313.48 1630.36 1321.17 1640 1334C1645.93 1345.34 1647.24 1360.04 1643.94 1372.44C1640.43 1381.82 1634.96 1390.78 1627 1397C1626.34 1397 1625.68 1397 1625 1397C1624.67 1397.99 1624.34 1398.98 1624 1400C1606.23 1410.29 1586.04 1412.67 1566.19 1407.65C1562.11 1406.44 1558.21 1404.83 1554.31 1403.13C1553.18 1402.63 1553.18 1402.63 1552.03 1402.13C1547.5 1400.04 1544.38 1397.76 1541 1394C1540.03 1393.13 1539.06 1392.27 1538.06 1391.38C1529.23 1382.52 1527 1372.07 1527 1360C1536.9 1360 1546.8 1360 1557 1360C1558.49 1365.45 1558.49 1365.45 1560 1371C1562.43 1375.53 1564.56 1377.53 1569 1380C1569 1380.66 1569 1381.32 1569 1382C1581.33 1385.2 1590.77 1386.25 1603 1382C1605.99 1380.05 1605.99 1380.05 1608 1378C1608.99 1377.67 1609.98 1377.34 1611 1377C1612.21 1375.01 1612.21 1375.01 1613.13 1372.63C1613.46 1371.83 1613.79 1371.04 1614.13 1370.23C1616.81 1363.36 1616.92 1356.85 1614.63 1349.81C1611.2 1342.16 1604.15 1338.65 1596.63 1335.75C1592.99 1334.54 1589.35 1333.57 1585.63 1332.69C1572.09 1329.45 1558.69 1324.7 1546 1319C1546 1318.34 1546 1317.68 1546 1317C1545.41 1316.72 1544.82 1316.44 1544.21 1316.15C1535.35 1311.54 1531.46 1303.89 1528.18 1294.71C1524.41 1280.58 1527.25 1266.85 1534.04 1254.3C1540.33 1243.72 1551.53 1236.94 1563.06 1233.06C1578.18 1229.29 1599.94 1228.57 1614 1236Z" fill="white"/>
<path d="M211 1233C220.24 1233 229.48 1233 239 1233C239 1283.16 239 1333.32 239 1385C258.14 1385 277.28 1385 297 1385C297 1392.59 297 1400.18 297 1408C268.62 1408 240.24 1408 211 1408C211 1350.25 211 1292.5 211 1233Z" fill="white"/>
</svg>
